<svg xmlns="http://www.w3.org/2000/svg" width="550" height="550" fill="none" viewBox="0 0 550 550"><path fill="#321D10" d="M216.493 59.4333C216.567 59.6371 216.64 59.841 216.714 60.0448C218.572 68.3252 225.974 61.5724 228.853 63.7334C234.202 67.7483 232.117 74.8207 225.613 76.28C220.034 77.5317 216.785 77.0003 212.072 74.6633C208.341 72.6618 205.475 68.5749 204.451 64.5114C200.907 50.4469 211.394 39.51 224.198 36.4007C239.974 32.5695 255.112 37.1245 268.434 45.0589C284.394 54.7803 296.901 69.2654 304.192 86.4727C307.012 93.2097 308.064 97.3761 309.823 104.292C314.217 104.434 319.419 103.602 324.151 103.73C344.668 104.16 364.743 109.76 382.521 120.01C383.51 110.425 384.852 105.977 382.892 95.5072C379.959 79.8488 372.262 65.4943 359.055 56.1655C354.03 52.6169 344.967 49.0048 338.747 50.3688C335.578 51.0756 332.347 52.9595 330.73 55.8551C327.298 61.9908 334.259 60.7012 337.506 62.5888C339.676 63.8508 339.996 65.0861 340.632 67.2891C340.135 69.8377 338.983 73.2558 336.185 73.8644C328.177 75.6049 320.429 70.8034 318.02 63.3623C316.468 58.463 316.964 53.1438 319.395 48.6162C327.255 33.6974 348.493 34.7459 361.356 41.9058C387.479 56.4481 401.052 89.1121 396.596 118.155C396.142 121.124 395.715 124.693 394.305 127.351C397.356 130.096 400.67 132.647 403.753 135.403C408.332 139.584 412.548 144.149 416.348 149.049C430.147 166.543 438.622 187.638 440.757 209.817C441.775 220.118 441.364 226.285 440.059 236.512C455.453 233.775 464.511 231.772 480.651 234.313C510.208 238.968 531.73 262.961 525.666 293.823C515.238 346.889 454.867 370.552 405.993 361.633C412.162 370.705 414.509 383.134 411.63 393.768C404.137 421.44 370.998 426.623 350.928 408.896C345.498 404.1 339.966 397.217 337.417 390.36L337.272 390.648C335.613 393.822 333.677 396.024 331.609 398.844C328.332 403.313 324.881 407.671 321.602 412.127L297.58 444.214C293.928 449.115 286.427 460.158 282.017 464.25C280.487 465.671 269.586 468.837 266.585 469.826C255.898 473.457 245.16 476.937 234.375 480.267C213.139 487.053 191.858 494.436 170.579 501.123C168.05 501.738 164.901 502.917 162.381 503.755C157.492 505.385 152.589 506.975 147.673 508.524C140.396 510.727 133.103 512.875 125.795 514.97C123.13 515.706 119.657 516.291 117.315 516.995C110.848 517.454 102.203 521.34 96.3582 516.447C93.2161 513.818 91.64 509.04 91.4037 505.02C90.5964 491.283 92.5037 477.622 93.8147 463.979C96.2274 439.221 98.9457 414.49 101.969 389.796C102.901 381.444 103.895 373.1 104.953 364.764C105.435 360.884 105.542 356.27 106.799 352.602C108.167 348.603 123.692 327.384 127.09 323.458C116.774 324.398 107.814 323.372 98.6605 318.098C91.0505 313.701 85.5521 306.402 83.4265 297.876C78.3538 278.18 93.4927 256.809 112.516 251.857C112.076 251.682 111.641 251.496 111.212 251.297C65.3906 230.22 25.9622 170.212 49.5674 119.761C55.0397 108.066 65.9417 96.6034 78.4088 92.4457C129.835 75.2947 178.775 120.002 200.39 162.775C202.854 167.654 206.32 173.153 208.041 178.047C210.467 172.104 214.438 165.143 217.993 159.754C236.106 132.283 264.387 113.128 296.619 106.502C295.84 104.515 295.335 101.929 294.712 99.8269C287.566 75.7835 268.441 55.3139 243.674 49.3735C233.368 46.9017 220.789 48.1817 216.493 59.4333Z" style="fill:color(display-p3 .1961 .1137 .0627);fill-opacity:1"/><path fill="#F0C04C" d="M219.485 182.856C221.47 178.935 223.646 174.436 225.939 170.759C240.098 147.615 261.964 130.204 287.692 121.589C315.281 112.561 345.332 114.901 371.191 128.093C392.471 138.985 408.015 154.395 418.443 175.974C427.032 193.746 430.093 210.417 428.133 230.093C427.789 232.956 427.467 235.115 426.927 237.96C426.516 241.391 425.533 244.599 424.709 247.897C420.53 264.626 412.084 279.78 401.18 293.041C398.46 296.35 395.697 299.602 392.495 302.519C365.406 306.088 335.205 299.667 310.181 289.365C276.638 275.556 242.14 251.987 221.033 222.112C217.611 217.268 213.405 211.465 211.102 206.052C212.682 200.053 216.241 187.739 219.485 182.856Z" style="fill:color(display-p3 .9412 .7529 .298);fill-opacity:1"/><path fill="#fff" d="M219.485 182.856C221.47 178.935 223.646 174.436 225.939 170.759C240.098 147.615 261.964 130.204 287.692 121.589C315.281 112.561 345.332 114.901 371.191 128.093C392.471 138.985 408.015 154.395 418.443 175.974C427.032 193.746 430.093 210.417 428.133 230.093C427.448 230.646 427.405 230.738 426.564 231.068C425.643 230.531 426.172 229.487 425.493 228.345C424.367 192.271 406.286 160.719 375.625 141.799C349.54 125.702 319.263 121.283 289.8 130C265.84 137.09 246.523 149.189 230.32 168.313C226.12 173.27 223.946 178.659 220.193 183.451L219.821 183.492L219.485 182.856Z" style="fill:#fff;fill-opacity:1"/><path fill="#FAEACA" d="M425.493 228.345C426.172 229.487 425.643 230.531 426.564 231.068C427.405 230.738 427.448 230.646 428.133 230.093C427.789 232.956 427.467 235.115 426.927 237.96L426.406 237.749C425.495 236.566 425.533 229.983 425.493 228.345Z" style="fill:color(display-p3 .9804 .9176 .7922);fill-opacity:1"/><path fill="#321D10" d="M324.919 198.224C326.399 198.092 328.187 198.129 329.527 198.957C333.591 201.526 330.653 206.342 331.917 210.312C333.975 218.792 346.097 221.409 351.503 214.484C355.392 209.507 358.663 203.583 363.397 213.632C364.133 215.196 361.824 218.119 360.903 219.462C359.412 221.576 358.255 222.929 356.316 224.67C347.993 232.139 333.421 230.962 326.254 222.434C321.221 216.449 320.799 208.54 321.49 201.003C322.668 199.537 323.267 199.107 324.919 198.224Z" style="fill:color(display-p3 .1961 .1137 .0627);fill-opacity:1"/><path fill="#321D10" d="M302.183 167.359C309.482 166.519 311.867 171.339 312.144 177.769C312.474 185.481 309.571 193.05 301.654 195.501C300.148 195.769 298.026 195.664 296.713 194.935C288.232 190.22 291.809 174.378 298.276 169.229C299.538 168.223 300.709 167.832 302.183 167.359Z" style="fill:color(display-p3 .1961 .1137 .0627);fill-opacity:1"/><path fill="#fff" d="M303.271 170.781C305.229 170.715 306.789 171.53 307.739 173.283C308.338 174.379 308.457 175.676 308.059 176.862C307.565 178.301 306.62 178.682 305.317 179.276C299.841 179.582 297.945 173.866 303.271 170.781Z" style="fill:#fff;fill-opacity:1"/><path fill="#321D10" d="M388.773 193.957C393.65 193.651 396.833 196.793 397.426 201.529C398.42 209.472 395.125 220.519 385.978 221.752C384.611 221.977 382.793 221.482 381.71 220.691C375.579 216.214 376.387 205.916 380.088 200.141C382.371 196.576 384.885 194.842 388.773 193.957Z" style="fill:color(display-p3 .1961 .1137 .0627);fill-opacity:1"/><path fill="#fff" d="M388.384 197.423C392.769 196.843 393.631 198.829 394.749 202.588C393.903 204.175 393.661 204.619 392.154 205.598C386.061 206.643 383.955 201.227 388.384 197.423Z" style="fill:#fff;fill-opacity:1"/><path fill="#E99A5D" d="M278.532 196.391C283.978 196.239 285.329 196.947 290.058 199.344C297.113 202.917 299.28 210.895 289.929 213.25C286.046 213.38 283.277 213.004 279.721 211.363C272.666 208.108 267.513 198.833 278.532 196.391Z" style="fill:color(display-p3 .9137 .6039 .3647);fill-opacity:1"/><path fill="#E99A5D" d="M378.093 228.314C381.957 228.275 385.964 228.099 389.829 229.048C393.698 230 399.542 234.012 398.103 238.73C397.466 240.819 395.278 242.125 393.414 243.104C381.616 247.277 366.029 234.062 378.093 228.314Z" style="fill:color(display-p3 .9137 .6039 .3647);fill-opacity:1"/><path fill="#D1F1F3" d="M55.5764 158.775C53.1846 130.934 66.1633 102.428 96.8664 101.161C143.607 99.2326 179.777 144.318 195.946 182.981C197.059 184.689 199.156 191.306 200.644 194.01C200.011 198.287 199.921 202.963 198.945 207.051C198.503 208.904 195.872 211.142 194.901 213.09C191.576 219.755 189.217 229.428 189.269 236.785C183.704 243.318 178.356 252.235 173.189 258.231C168.696 256.863 159.711 255.423 154.615 254.199C138.821 250.56 123.68 244.51 109.727 236.264C84.6251 221.401 64.7532 198.517 57.4307 169.915C56.4946 165.845 55.937 162.963 55.5764 158.775Z" style="fill:color(display-p3 .8196 .9451 .9529);fill-opacity:1"/><path fill="#9FD1D6" d="M160.964 145.208C170.563 154.46 180.695 162.599 188.565 173.466C189.964 175.399 193.817 182.244 195.337 183.349L195.77 183.293L195.946 182.981C197.059 184.689 199.156 191.306 200.644 194.01C200.011 198.287 199.921 202.963 198.945 207.051C198.503 208.904 195.872 211.142 194.901 213.09C191.576 219.755 189.217 229.428 189.269 236.785C183.703 243.318 178.356 252.235 173.189 258.231C168.696 256.863 159.711 255.423 154.615 254.199C138.82 250.56 123.68 244.51 109.727 236.264C84.625 221.401 64.7531 198.517 57.4307 169.915C58.5599 170.961 58.9518 170.214 59.3226 170.826C74.2011 195.354 95.3565 213.506 122.756 222.856C135.817 227.314 171.218 228.429 176.238 211.779C178.874 199.301 176.34 180.511 172.229 168.641C170.234 162.882 163.886 151.041 160.848 145.563L160.964 145.208Z" style="fill:color(display-p3 .6235 .8196 .8392);fill-opacity:1"/><path fill="#fff" d="M55.5764 158.775C53.1846 130.934 66.1633 102.428 96.8664 101.161C143.607 99.2326 179.777 144.318 195.946 182.981L195.77 183.293L195.337 183.349C193.817 182.244 189.964 175.399 188.565 173.466C180.695 162.599 170.563 154.46 160.964 145.208C159.026 142.559 155.078 139.848 152.446 137.678C139.805 127.256 127.306 119.415 110.989 116.672C87.7589 112.767 69.0973 123.447 61.7193 145.969C60.6604 149.201 59.4774 158.224 55.5764 158.775Z" style="fill:#fff;fill-opacity:1"/><path fill="#F0C04C" d="M120.238 353.676C125.068 347.762 128.911 342.123 133.36 335.922C140.259 326.393 147.09 316.814 153.852 307.186L177.977 273.458C182.992 266.517 188.542 259.118 193.367 252.09C194.484 254.437 196.75 258.1 198.124 260.454C200.278 262.713 203.835 268.657 205.974 271.401C208.989 275.274 211.612 277.954 215.005 281.418C217.044 283.406 219.064 285.412 221.065 287.437C230.715 296.611 241.204 304.855 252.395 312.069C255.837 314.276 261.551 317.915 265.311 319.631C262.178 323.99 258.861 329.476 255.744 334.066C249.655 342.888 243.489 351.659 237.247 360.376C230.187 370.377 223.012 380.295 215.722 390.127C213.083 393.634 210.437 397.117 207.754 400.592C206.951 401.632 205.5 403.09 204.894 403.925C199.271 400.775 195.57 398.613 189.098 397.41C184.052 396.126 179.082 396.164 173.597 394.168C165.732 391.308 165.844 387.076 163.445 380.11C162.083 376.154 160.896 373.758 158.257 370.654C158.269 370.662 154.984 367.702 154.588 367.369C143.685 360.707 137.999 362.28 126.357 362.887C125.803 362.205 125.441 361.493 125.008 360.731C123.752 358.499 121.765 355.695 120.238 353.676Z" style="fill:color(display-p3 .9412 .7529 .298);fill-opacity:1"/><path fill="#F0C04C" d="M120.238 353.676C125.068 347.762 128.911 342.123 133.36 335.922C140.259 326.393 147.09 316.814 153.852 307.186L177.977 273.458C182.992 266.517 188.542 259.118 193.367 252.09C194.484 254.437 196.75 258.1 198.124 260.454C200.278 262.713 203.835 268.657 205.974 271.401C208.989 275.274 211.612 277.954 215.005 281.418C217.044 283.406 219.064 285.412 221.065 287.437C219.385 287.944 209.231 302.683 207.436 305.21L193.998 323.979C192.263 326.423 190.403 328.891 188.58 331.262C178.656 344.182 169.359 357.844 158.66 370.09C158.211 370.603 158.662 369.827 158.257 370.654C158.269 370.662 154.984 367.702 154.588 367.369C143.685 360.707 137.999 362.28 126.357 362.887C125.803 362.205 125.441 361.493 125.008 360.731C123.752 358.499 121.765 355.695 120.238 353.676Z" style="fill:color(display-p3 .9412 .7529 .298);fill-opacity:1"/><path fill="#fff" d="M120.238 353.676C125.068 347.762 128.911 342.123 133.36 335.922C140.259 326.393 147.09 316.814 153.852 307.186L177.977 273.458C182.992 266.517 188.542 259.118 193.367 252.09C194.484 254.437 196.75 258.1 198.124 260.454C194.843 265.512 189.687 272.153 186.008 277.151L169.033 300.631L134.122 348.401C131.551 351.93 129.527 355.231 127.208 358.902C126.748 359.63 125.894 360.529 125.008 360.731C123.752 358.499 121.765 355.695 120.238 353.676Z" style="fill:#fff;fill-opacity:1"/><path fill="#CC9E41" d="M215.005 281.418C217.044 283.406 219.064 285.412 221.065 287.437C219.385 287.944 209.231 302.683 207.436 305.21L193.998 323.979C192.263 326.423 190.403 328.891 188.58 331.262C178.656 344.182 169.359 357.844 158.66 370.09C158.211 370.603 158.662 369.827 158.257 370.654C158.269 370.662 154.984 367.702 154.588 367.369L154.698 367.114C157.623 360.478 162.387 355.19 166.517 349.328C174.035 338.755 181.649 328.249 189.357 317.813C193.39 312.426 197.35 306.982 201.236 301.488C205.751 295.187 208.471 291.213 212.009 284.273C212.221 285.033 211.832 285.347 211.374 286.295L211.661 286.269C212.814 284.915 214.624 283.041 215.005 281.418Z" style="fill:color(display-p3 .8 .6196 .2549);fill-opacity:1"/><path fill="#CC9E41" d="M252.395 312.069C255.837 314.276 261.551 317.915 265.311 319.631C262.178 323.99 258.861 329.476 255.744 334.066C249.655 342.888 243.489 351.659 237.247 360.376C230.187 370.377 223.012 380.295 215.722 390.127C213.083 393.634 210.437 397.117 207.754 400.592C206.951 401.632 205.5 403.09 204.894 403.925C199.271 400.775 195.57 398.613 189.098 397.41L189.769 397.072C190.653 394.789 194.077 390.548 195.678 388.378C199.143 383.652 202.642 378.952 206.174 374.277L241.019 327.543C244.363 323.077 249.003 315.887 252.395 312.069Z" style="fill:color(display-p3 .8 .6196 .2549);fill-opacity:1"/><path fill="#F0C04C" d="M265.311 319.631C273.971 324.116 284.99 329.38 294.14 332.793C300.617 335.076 305.712 336.725 312.308 338.532C325.19 341.634 331.488 342.217 344.303 342.987C348.178 342.528 351.632 343.216 356.291 342.388C348.06 354.672 338.615 367.488 329.871 379.462C321.911 390.594 313.844 401.645 305.666 412.618C299.422 421.07 293.135 429.491 286.808 437.881C283.296 442.535 278.303 449.265 274.514 453.635C269.889 453.922 267.211 455.077 265.942 449.767C262.227 438.907 254.835 431.618 243.02 430.423C239.286 431.119 227.421 429.132 223.592 427.649C222.403 427.265 220.997 426.876 219.968 426.156C214.002 421.983 215.021 411.095 204.894 403.925C205.5 403.09 206.951 401.632 207.754 400.592C210.437 397.117 213.083 393.634 215.722 390.127C223.012 380.295 230.187 370.377 237.247 360.376C243.489 351.659 249.655 342.888 255.744 334.066C258.861 329.476 262.178 323.99 265.311 319.631Z" style="fill:color(display-p3 .9412 .7529 .298);fill-opacity:1"/><path fill="#B78936" d="M312.308 338.532C325.19 341.634 331.488 342.217 344.303 342.987C348.179 342.528 351.632 343.216 356.292 342.388C348.06 354.672 338.615 367.488 329.871 379.462C321.911 390.594 313.844 401.645 305.666 412.618C299.422 421.07 293.136 429.491 286.808 437.881C283.296 442.535 278.303 449.265 274.514 453.635C269.889 453.922 267.211 455.077 265.942 449.767C262.227 438.907 254.835 431.618 243.02 430.423C245.019 429.752 264.011 405.284 266.544 401.65C277.712 385.623 289.591 370.063 300.907 354.138C304.828 348.622 307.667 343.782 312.308 338.532Z" style="fill:color(display-p3 .7176 .5373 .2118);fill-opacity:1"/><path fill="#CC9E41" d="M344.303 342.987C348.178 342.528 351.632 343.216 356.291 342.388C348.06 354.672 338.615 367.488 329.871 379.462C321.911 390.594 313.844 401.645 305.666 412.618C299.422 421.07 293.135 429.491 286.808 437.881C283.296 442.535 278.303 449.265 274.514 453.635C269.889 453.922 267.211 455.077 265.942 449.767L266.229 449.338C269.503 447.963 280.28 432.376 283.078 428.621C292.923 415.65 302.637 402.577 312.219 389.407C322.395 375.343 331.995 360.852 342.598 347.072C343.471 345.939 343.949 344.354 344.303 342.987Z" style="fill:color(display-p3 .8 .6196 .2549);fill-opacity:1"/><path fill="#CC9E41" d="M294.14 332.793C300.618 335.076 305.712 336.725 312.308 338.532C307.667 343.782 304.828 348.622 300.908 354.138C289.591 370.063 277.712 385.623 266.544 401.65C264.011 405.284 245.019 429.752 243.02 430.423C239.286 431.119 227.421 429.132 223.593 427.649C225.778 424.682 227.722 422.6 230.142 419.826C233.476 416.002 236.765 412.137 240.006 408.233C249.614 396.494 259.884 382.784 268.837 370.597C274.936 362.468 280.769 354.14 286.325 345.627C287.845 343.28 292.856 334.171 294.14 332.793Z" style="fill:color(display-p3 .8 .6196 .2549);fill-opacity:1"/><path fill="#FAEACA" d="M117.757 363.287C119.745 366.518 120.649 368.438 124.33 369.88C130.526 370.415 136.734 368.339 142.9 370.101C146.626 371.167 150.079 372.751 152.654 375.77C158.789 383.182 156.712 391.545 164.635 398.122C177.005 407.22 186.936 401.46 199.193 409.191C209.127 415.454 206.477 425.487 214.331 431.43C218.95 433.614 219.804 435.204 225.42 436.705C235.161 439.307 246.741 434.728 253.962 442.922C257.855 447.337 258.838 453.702 262.329 458.213L185.125 483.659C177.988 486.081 170.752 488.211 163.674 490.792C161.307 491.654 158.012 492.607 155.81 493.66C153.369 487.811 151.07 481.929 147.45 476.677C142.891 470.443 135.441 465.309 128.685 461.594C123.246 459.129 117.711 456.887 112.092 454.867L107.304 453.084C109.893 432.585 112.238 412.054 114.338 391.496C115.349 382.468 117.091 372.115 117.757 363.287Z" style="fill:color(display-p3 .9804 .9176 .7922);fill-opacity:1"/><path fill="#BEAE92" d="M214.331 431.43C218.95 433.614 219.804 435.204 225.42 436.705C235.161 439.307 246.741 434.728 253.962 442.922C257.855 447.337 258.838 453.702 262.329 458.213L185.125 483.659C177.988 486.081 170.752 488.211 163.674 490.792C161.307 491.654 158.012 492.607 155.81 493.66C153.369 487.811 151.07 481.929 147.45 476.677C151.569 473.046 157.987 471.125 162.633 467.922C177.521 457.674 192.669 447.654 206.9 436.501C208.599 435.169 213.198 432.623 214.331 431.43Z" style="fill:color(display-p3 .7451 .6824 .5725);fill-opacity:1"/><path fill="#fff" d="M117.757 363.287C119.745 366.518 120.649 368.438 124.33 369.88C124.246 372.883 122.632 377.983 122.129 381.154C121.216 386.912 120.384 392.716 119.563 398.484C117.775 410.456 116.135 422.453 114.645 434.465C113.916 440.306 113.224 449.319 112.092 454.867L107.304 453.084C109.893 432.585 112.238 412.054 114.338 391.496C115.349 382.468 117.091 372.115 117.757 363.287Z" style="fill:#fff;fill-opacity:1"/><path fill="#D1F1F3" d="M436.847 250.276C462.478 241.906 501.55 242.176 512.537 272.758C515.759 281.733 513.796 295.732 509.797 304.254C507.969 308.089 506.196 310.879 503.924 314.429C499.02 323.326 483.844 335.403 475.197 339.894C451.669 352.107 423.092 353.939 397.611 347.563C388.566 345.3 381.098 342.335 372.373 339.695C377.228 334.748 380.945 331.893 386.155 327.371C390.054 323.931 393.862 320.388 397.579 316.752C401.476 312.931 403.769 309.445 407.105 305.25C409.801 301.858 412.726 298.609 415.357 295.131C423.411 284.528 429.79 272.755 434.272 260.22C435.016 258.053 435.717 255.824 436.428 253.642C436.573 252.547 436.751 251.369 436.847 250.276Z" style="fill:color(display-p3 .8196 .9451 .9529);fill-opacity:1"/><path fill="#9FD1D6" d="M441.729 259.328C437.202 266.44 436.377 271.799 434.001 279.396C432.094 285.495 426.417 295.885 421.252 299.72C414.187 304.971 406.417 308.215 405.134 318.353C405.257 321.371 407.631 325.367 409.524 327.645C410.223 328.48 411.286 329.64 411.625 330.634C424.784 337.466 450.041 335.825 464.479 332.766C471.367 331.074 478.242 328.491 484.682 325.518C490.832 322.682 496.217 318.24 501.88 314.62C502.597 314.163 503.129 314.359 503.924 314.429C499.02 323.326 483.844 335.403 475.197 339.894C451.669 352.107 423.092 353.939 397.611 347.563C388.566 345.3 381.098 342.335 372.373 339.695C377.228 334.748 380.945 331.893 386.155 327.371C390.054 323.931 393.862 320.388 397.579 316.752C401.476 312.931 403.769 309.445 407.105 305.25C409.801 301.858 412.726 298.609 415.357 295.131C423.411 284.528 429.79 272.755 434.272 260.22C436.141 260.973 439.796 259.913 441.729 259.328Z" style="fill:color(display-p3 .6235 .8196 .8392);fill-opacity:1"/><path fill="#BCE4E9" d="M405.134 318.353C405.257 321.371 407.631 325.367 409.524 327.645C410.223 328.48 411.286 329.64 411.625 330.634C404.857 328.816 404.143 324.47 405.134 318.353Z" style="fill:color(display-p3 .7373 .8941 .9137);fill-opacity:1"/><path fill="#fff" d="M436.847 250.276C462.478 241.906 501.55 242.176 512.537 272.758C515.759 281.733 513.796 295.732 509.797 304.254C509.424 304.192 509.166 304.084 508.804 303.964C506.924 302.073 506.714 290.291 505.938 286.639C500.011 258.716 465.344 253.711 441.807 258.961L443.926 254.364C442.659 254.484 439.756 254.568 438.869 255.284C440.277 256.376 441.066 254.801 442.941 254.895C442.986 255.567 441.826 257.765 441.434 258.781C439.702 259.356 437.664 260.21 435.872 259.795C434.626 258.309 437.008 256.424 436.428 253.642C436.573 252.547 436.751 251.369 436.847 250.276Z" style="fill:#fff;fill-opacity:1"/><path fill="#fff" d="M205.553 219.875L205.833 219.49C206.718 219.99 209.357 225.478 210.198 226.671C238.936 267.474 292.676 301.52 341.513 310.49C354.06 313.14 371.067 315.659 383.829 313.718C382.419 314.657 379.771 316.296 378.512 317.271C375.305 320.636 365.455 330.043 361.241 331.184C351.165 333.913 337.689 332.025 327.484 330.336C321.401 329.326 307.898 325.878 302.288 323.262C301.01 322.972 296.887 321.404 295.563 320.874C281.534 315.259 266.114 307.836 254.025 298.823C248.804 295.402 239.743 289.164 235.241 284.834C231.008 281.708 219.621 269.957 216.245 265.642C211.012 259.906 205.183 252.099 201.796 245.078C199.13 239.552 202.089 231.261 203.778 225.773C204.339 223.95 204.853 221.638 205.553 219.875Z" style="fill:#fff;fill-opacity:1"/><path fill="#C6C5C5" d="M291.653 311.612C292.859 305.959 291.76 300.91 288.377 296.17C296.831 299.632 305.355 302.919 313.946 306.032C319.075 307.866 324.148 309.936 329.498 311.053C332.559 311.693 335.623 312.334 338.685 312.974L338.752 312.727C337.6 312.455 336.886 312.141 335.803 311.854C333.491 311.233 327.685 310.836 325.883 309.55L325.743 309.104C326.439 308.575 326.587 308.373 327.057 307.678C330.969 308.395 336.682 310.076 340.882 311.037L341.091 311.392C340.75 311.985 340.739 311.945 340.181 312.364L340.511 312.686C341.142 312.181 341.669 311.883 341.961 311.145L341.513 310.49C354.06 313.14 371.067 315.659 383.829 313.718C382.419 314.657 379.771 316.296 378.512 317.271C375.305 320.636 365.455 330.043 361.241 331.184C351.165 333.913 337.689 332.025 327.484 330.336C321.401 329.326 307.898 325.878 302.288 323.262C301.009 322.972 296.887 321.404 295.563 320.875C281.534 315.259 266.114 307.836 254.025 298.823L254.204 298.496C254.716 297.534 254.508 297.346 255.441 296.691C257.466 296.342 261.007 299.057 262.987 299.997C272.116 304.334 281.139 311.746 291.653 311.612Z" style="fill:color(display-p3 .7765 .7725 .7725);fill-opacity:1"/><path fill="#959494" d="M341.513 310.49C354.06 313.14 371.067 315.659 383.829 313.718C382.419 314.657 379.771 316.296 378.512 317.271C375.305 320.635 365.455 330.043 361.241 331.184C351.165 333.913 337.689 332.025 327.484 330.336C321.401 329.326 307.898 325.878 302.288 323.262C305.298 322.95 313.656 327.172 317.015 326.968C317.254 326.955 319.392 324.701 319.645 323.971C317.689 322.491 308.124 322.314 306.491 321.25L306.692 320.987C311.655 321.586 316.927 323.141 322.137 323.402C329.154 323.753 334.861 318.355 339.499 314.042C340.068 313.473 340.084 313.36 340.511 312.686C341.142 312.181 341.669 311.883 341.961 311.145L341.513 310.49Z" style="fill:color(display-p3 .5843 .5804 .5804);fill-opacity:1"/><path fill="#C6C5C5" d="M341.513 310.49C354.06 313.14 371.067 315.659 383.829 313.718C382.419 314.657 379.771 316.296 378.512 317.271C377.043 316.642 372.937 317.313 370.941 317.362C365.559 317.493 360.059 317.416 354.672 317.284C353.955 317.193 353.343 316.827 352.709 316.521C349.065 314.773 343.476 314.478 339.499 314.042C340.068 313.473 340.084 313.36 340.511 312.686C341.142 312.181 341.669 311.883 341.961 311.145L341.513 310.49Z" style="fill:color(display-p3 .7765 .7725 .7725);fill-opacity:1"/><path fill="#D1F1F3" d="M216.305 244.885C217.464 245.963 219.98 248.523 221.407 248.942L222.016 248.599C229.938 255.609 237.372 263.152 244.266 271.176C241.967 271.093 241.155 270.996 239.257 272.701C237.275 274.487 236.172 277.774 235.772 280.355C236.19 281.448 236.934 282.834 236.678 283.881C236.041 284.013 235.729 283.682 234.981 283.328L234.783 283.65L235.241 284.834C231.008 281.709 219.621 269.957 216.245 265.642C217.702 261.541 213.296 253.58 216.305 244.885Z" style="fill:color(display-p3 .8196 .9451 .9529);fill-opacity:1"/><path fill="#C6C5C5" d="M216.245 265.642C211.012 259.906 205.183 252.099 201.796 245.078C199.13 239.552 202.089 231.261 203.778 225.773C204.339 223.95 204.853 221.638 205.553 219.875C205.138 223.449 205.945 223.154 207.269 226.188C210.996 234.732 216.612 241.165 222.016 248.599L221.407 248.942C219.98 248.523 217.464 245.963 216.305 244.885C213.296 253.58 217.702 261.541 216.245 265.642Z" style="fill:color(display-p3 .7765 .7725 .7725);fill-opacity:1"/><path fill="#99CDD2" d="M130.328 259.434C137.895 263.449 157.336 268.24 165.813 268.941C162.86 272.889 160.056 277.17 157.173 281.212L136.992 309.259C129.964 310.648 123.471 312.522 116.155 311.462C108.041 310.285 101.344 306.437 97.1801 299.269C96.2122 297.559 95.7634 295.95 95.2921 294.067C94.5243 290.756 94.6111 289.639 95.3201 286.416C96.68 275.757 105.607 267.641 115.25 264.062C118.134 262.734 122.687 261.621 125.759 260.915C127.274 260.396 128.797 259.902 130.328 259.434Z" style="fill:color(display-p3 .6 .8039 .8235);fill-opacity:1"/><path fill="#D1F1F3" d="M95.3201 286.416C96.68 275.757 105.607 267.641 115.25 264.062C116.07 264.969 115.66 266.384 116.232 267.562C116.532 268.18 116.984 268.689 117.128 269.282L116.932 270.179C118.342 271.729 121.038 270.335 122.309 272.03C123.914 272.57 126.348 272.835 128.051 273.048C134.236 273.826 138.169 275.486 142.248 280.304C136.762 293.957 117.537 305.749 102.973 299.865C102.633 299.726 102.296 299.583 101.962 299.433C100.416 299.406 98.6995 299.436 97.1801 299.269C96.2122 297.559 95.7634 295.95 95.2921 294.067C94.5243 290.756 94.6111 289.639 95.3201 286.416Z" style="fill:color(display-p3 .8196 .9451 .9529);fill-opacity:1"/><path fill="#fff" d="M95.3199 286.416C96.6799 275.757 105.607 267.641 115.25 264.062C116.07 264.969 115.66 266.384 116.232 267.562C116.532 268.18 116.984 268.689 117.127 269.282C116.624 269.739 111.677 272.145 110.302 272.935C106.112 275.349 99.1178 286.755 95.9921 288.127L95.4596 287.985C95.2904 287.324 95.3256 287.106 95.3199 286.416Z" style="fill:#fff;fill-opacity:1"/><path fill="#BCE4E9" d="M95.2921 294.067C98.5073 294.333 99.7391 297.263 101.962 299.433C100.416 299.406 98.6995 299.436 97.1801 299.269C96.2122 297.559 95.7634 295.95 95.2921 294.067Z" style="fill:color(display-p3 .7373 .8941 .9137);fill-opacity:1"/><path fill="#D1F1F3" d="M115.25 264.062C118.133 262.734 122.687 261.621 125.759 260.915L125.926 261.228L125.662 261.3C120.177 262.833 123.962 265.877 121.896 267.966C123.496 268.022 132.254 268.236 133.266 268.464L134.781 268.51L134.841 268.71C131.53 268.998 128.557 270.287 125.404 271.219C124.2 271.573 123.555 271.423 122.309 272.03C121.038 270.335 118.342 271.729 116.932 270.179L117.127 269.282C116.984 268.689 116.532 268.18 116.232 267.562C115.66 266.384 116.07 264.969 115.25 264.062Z" style="fill:color(display-p3 .8196 .9451 .9529);fill-opacity:1"/><path fill="#9FD1D6" d="M117.127 269.282C117.586 268.888 118.099 268.458 118.721 268.411C123.529 268.048 128.372 268.721 133.266 268.464L134.781 268.51L134.841 268.71C131.53 268.998 128.557 270.287 125.404 271.219C124.2 271.573 123.555 271.423 122.309 272.03C121.038 270.335 118.342 271.729 116.932 270.179L117.127 269.282Z" style="fill:color(display-p3 .6235 .8196 .8392);fill-opacity:1"/><path fill="#D1F1F3" d="M365.831 349.905C372.018 353.187 376.422 353.356 382.5 355.647C387.363 356.619 389.654 360.145 392.289 364.133C400.525 374.787 404.795 389.974 393.811 400.453C392.254 402.268 390.962 403.31 388.805 404.379C383.297 407.916 374.282 407.709 368.352 405.595C356.243 401.277 350.327 390.162 345.265 379.358C351.197 370.238 360.497 359.216 365.831 349.905Z" style="fill:color(display-p3 .8196 .9451 .9529);fill-opacity:1"/><path fill="#9FD1D6" d="M365.831 349.905C372.018 353.187 376.422 353.356 382.5 355.647C381.748 355.566 380.593 355.225 380.134 355.862C376.849 360.392 385.532 368.368 387.637 372.144C386.536 371.639 386.337 371.586 385.43 370.818C384.895 370.904 384.001 371.014 383.51 371.148C380.153 371.062 369.515 360.062 367.206 363.414C359.565 374.51 364.066 390.836 371.83 397.289C373.57 398.755 375.563 399.889 377.714 400.63C380.534 401.607 386.856 402.228 388.432 403.909L388.384 404.11L388.805 404.379C383.297 407.916 374.282 407.709 368.352 405.595C356.243 401.277 350.327 390.162 345.265 379.358C351.197 370.238 360.497 359.216 365.831 349.905Z" style="fill:color(display-p3 .6235 .8196 .8392);fill-opacity:1"/><path fill="#9FD1D6" d="M383.51 371.148C383.316 370.02 382.357 369.725 382.97 368.785C384.065 368.991 384.898 369.886 385.43 370.818C384.895 370.904 384.001 371.014 383.51 371.148Z" style="fill:color(display-p3 .6235 .8196 .8392);fill-opacity:1"/><path fill="#fff" d="M393.811 400.453C391.322 398.272 394.174 394.603 394.617 391.789C395.17 388.284 395.415 384.678 394.784 381.168C394.099 377.368 386.837 367.697 390.006 364.123C391.389 363.575 390.782 363.593 392.289 364.133C400.525 374.787 404.795 389.974 393.811 400.453Z" style="fill:#fff;fill-opacity:1"/><path fill="#fff" d="M106.534 459.416C108.301 459.414 109.471 459.29 110.938 460.244C111.332 460.861 111.497 460.834 111.353 461.605C109.029 474.085 106.638 486.648 104.58 499.176C104.416 500.162 104.368 501.392 103.769 502.111L103.342 502.001C102.282 499.794 105.704 464.447 106.534 459.416Z" style="fill:#fff;fill-opacity:1"/><path fill="#F0C04C" d="M450.1 86.5224C450.31 86.6067 450.866 86.8602 450.927 87.146C452.155 92.7252 453.761 98.9385 456.758 103.86C461.119 111.029 470.333 113.52 477.984 115.293C478.632 115.444 478.927 115.677 479.188 116.247C478.503 117.36 470.032 119.688 467.873 120.547C457.956 124.49 452.394 134.474 450.844 145.217C450.667 145.269 450.492 145.321 450.315 145.374C449.757 144.839 448.819 140.603 448.553 139.695C445.043 127.684 438.749 121.495 426.876 117.964C425.627 117.593 423.277 116.909 422.12 116.173L422.152 115.846C423.777 115.045 425.963 114.777 427.73 114.228C430.912 113.24 434.511 111.757 437.312 109.979C445.119 105.029 448.22 95.0788 450.1 86.5224Z" style="fill:color(display-p3 .9412 .7529 .298);fill-opacity:1"/><path fill="#F0C04C" d="M41.959 242.669C43.0531 243.728 44.5635 250.114 45.5171 252.147C49.3633 260.345 55.0078 260.921 62.681 263.681C59.8528 264.858 56.8619 265.865 54.1501 267.078C46.7535 270.386 44.7402 276.649 42.632 283.803C42.4212 284.518 42.3645 284.383 41.7461 284.649C36.7891 262.699 23.5083 267.309 21.4956 263.66C24.9451 262.546 28.2649 261.589 31.4891 259.93C38.8395 256.147 39.6661 249.42 41.959 242.669Z" style="fill:color(display-p3 .9412 .7529 .298);fill-opacity:1"/><path fill="#F0C04C" d="M428.154 416.155C429.156 417.24 429.575 421.523 431.003 424.19C434.358 430.448 440.021 431.737 446.3 433.807C435.837 436.377 430.324 439.017 428.39 450.57L427.923 450.815C427.778 450.723 427.633 450.629 427.488 450.535C426.451 445.68 425.117 441.203 420.855 437.946L420.422 437.618C418.258 435.964 412.586 434.624 411.735 433.488C412.685 432.172 420.608 430.606 422.998 427.206C425.807 423.213 426.766 420.89 428.154 416.155Z" style="fill:color(display-p3 .9412 .7529 .298);fill-opacity:1"/><path fill="#F0C04C" d="M347.545 438.136C352.212 441.525 345.579 449.48 363.787 453.487C353.445 457.491 351.522 457.577 348.133 468.644C348.058 468.631 347.977 468.631 347.907 468.601C347.335 468.343 344.926 461.941 344.182 460.703C341.725 456.605 336.193 454.902 331.802 453.839C342.88 449.902 344.01 449.504 347.545 438.136Z" style="fill:color(display-p3 .9412 .7529 .298);fill-opacity:1"/><path fill="#F0C04C" d="M490.085 162.352C490.953 163.246 491.697 167.336 492.645 169.352C495.344 175.09 500.693 176.238 506.269 178.222C493.856 181.228 494.441 182.473 490.346 193.068L490.177 193.494C489.156 192.774 488.208 187.443 487.096 185.53C484.314 180.747 479.367 179.27 474.348 178.004C476.357 177.225 478.355 176.415 480.337 175.574C487.537 172.484 487.158 169.479 489.879 162.849L490.085 162.352Z" style="fill:color(display-p3 .9412 .7529 .298);fill-opacity:1"/><path fill="#F0C04C" d="M155.819 48.9811C156.772 49.5266 156.634 50.4735 156.964 51.5061C157.696 53.7974 158.562 57.0845 160.113 58.9668C161.791 61.0022 164.867 62.5671 167.275 63.5322C168.292 63.9155 169.554 64.093 170.313 64.7515C169.803 66.3134 163.89 67.4295 162.05 68.8273C158.641 71.4167 157.299 76.0678 156.443 79.938C155.409 79.2634 153.747 73.2265 151.964 70.8154C149.198 67.0756 143.081 66.2369 141.617 64.9991L141.621 64.527C142.67 63.5817 146.223 63.0607 148.332 61.7767C153.054 58.9029 154.639 54.1393 155.819 48.9811Z" style="fill:color(display-p3 .9412 .7529 .298);fill-opacity:1"/><path fill="#F0C04C" d="M190.863 97.0653C194.987 99.7404 198.128 105.061 192.289 108.082C189.01 107.86 185.609 104.556 187.859 101.327C189.15 99.4756 190.544 99.825 190.863 97.0653Z" style="fill:color(display-p3 .9412 .7529 .298);fill-opacity:1"/><path fill="#F0C04C" d="M462.215 206.063C462.763 205.989 463.313 205.941 463.864 205.917C467.664 205.777 469.195 210.259 466.106 212.675C465.486 212.737 463.917 212.872 463.345 212.693C460.254 211.727 459.519 207.904 462.215 206.063Z" style="fill:color(display-p3 .9412 .7529 .298);fill-opacity:1"/><path fill="#FAEACA" d="M70.3071 340.807C73.5619 340.613 74.3899 344.435 72.8094 346.672C72.3158 347.37 71.3915 347.279 70.6027 347.365C69.0309 347.22 67.4915 346.868 67.1064 345.184C66.4734 342.413 68.4358 341.529 70.3071 340.807Z" style="fill:color(display-p3 .9804 .9176 .7922);fill-opacity:1"/></svg>